<mxfile host="app.diagrams.net" modified="2023-06-02T08:29:39.534Z" agent="Mozilla/5.0 (Windows NT 10.0; Win64; x64) AppleWebKit/537.36 (KHTML, like Gecko) Chrome/114.0.0.0 Safari/537.36" etag="PrmurfwXiPvtbBRpJfe7" version="21.3.7" type="device">
  <diagram name="Страница 1" id="IXWTwb9dd3aQ7KjVBmAe">
    <mxGraphModel dx="1207" dy="625" grid="0" gridSize="10" guides="1" tooltips="1" connect="1" arrows="1" fold="1" page="0" pageScale="1" pageWidth="827" pageHeight="1169" math="0" shadow="0">
      <root>
        <mxCell id="0" />
        <mxCell id="1" parent="0" />
        <mxCell id="QM5JJQ9it6W4OubuqGH_-173" value="" style="html=1;whiteSpace=wrap;fontFamily=Times New Roman;fontSize=16;" parent="1" vertex="1">
          <mxGeometry x="329" y="75" width="1258" height="829" as="geometry" />
        </mxCell>
        <mxCell id="SF_6A3OBlmHwGj7pTA_R-1" value="" style="ellipse;whiteSpace=wrap;html=1;fontFamily=Times New Roman;fontSize=16;" parent="1" vertex="1">
          <mxGeometry x="466" y="555" width="191" height="63" as="geometry" />
        </mxCell>
        <mxCell id="SF_6A3OBlmHwGj7pTA_R-2" value="&lt;font style=&quot;font-size: 16px;&quot;&gt;&lt;span style=&quot;font-size: 16px;&quot;&gt;Просмотр одобренных выходных&lt;/span&gt;&lt;/font&gt;" style="text;html=1;strokeColor=none;fillColor=none;align=center;verticalAlign=middle;whiteSpace=wrap;rounded=0;fontFamily=Times New Roman;fontSize=16;" parent="1" vertex="1">
          <mxGeometry x="489.5" y="568" width="144" height="40" as="geometry" />
        </mxCell>
        <mxCell id="SF_6A3OBlmHwGj7pTA_R-3" value="&lt;font style=&quot;font-size: 16px;&quot;&gt;&amp;lt;&amp;lt;расширить&amp;gt;&amp;gt;&lt;/font&gt;" style="endArrow=none;endSize=11;endFill=0;html=1;rounded=0;dashed=1;dashPattern=8 8;jumpSize=5;startSize=11;startArrow=classicThin;startFill=1;fontFamily=Times New Roman;fontSize=16;" parent="1" source="QM5JJQ9it6W4OubuqGH_-107" target="SF_6A3OBlmHwGj7pTA_R-1" edge="1">
          <mxGeometry width="160" relative="1" as="geometry">
            <mxPoint x="794" y="587" as="sourcePoint" />
            <mxPoint x="266" y="488.59000000000003" as="targetPoint" />
          </mxGeometry>
        </mxCell>
        <mxCell id="QM5JJQ9it6W4OubuqGH_-21" value="" style="ellipse;whiteSpace=wrap;html=1;fontFamily=Times New Roman;fontSize=16;" parent="1" vertex="1">
          <mxGeometry x="719" y="528" width="182" height="60" as="geometry" />
        </mxCell>
        <mxCell id="QM5JJQ9it6W4OubuqGH_-22" value="&lt;font style=&quot;font-size: 16px;&quot;&gt;Просмотр персональной информации&lt;/font&gt;" style="text;html=1;strokeColor=none;fillColor=none;align=center;verticalAlign=middle;whiteSpace=wrap;rounded=0;fontFamily=Times New Roman;fontSize=16;" parent="1" vertex="1">
          <mxGeometry x="737" y="538" width="144" height="40" as="geometry" />
        </mxCell>
        <mxCell id="QM5JJQ9it6W4OubuqGH_-35" value="" style="ellipse;whiteSpace=wrap;html=1;fontFamily=Times New Roman;fontSize=16;" parent="1" vertex="1">
          <mxGeometry x="495.75" y="230.5" width="182" height="60" as="geometry" />
        </mxCell>
        <mxCell id="QM5JJQ9it6W4OubuqGH_-36" value="&lt;font style=&quot;font-size: 16px;&quot;&gt;Просмотр пользователей&lt;/font&gt;" style="text;html=1;strokeColor=none;fillColor=none;align=center;verticalAlign=middle;whiteSpace=wrap;rounded=0;fontFamily=Times New Roman;fontSize=16;" parent="1" vertex="1">
          <mxGeometry x="513.75" y="240.5" width="144" height="40" as="geometry" />
        </mxCell>
        <mxCell id="QM5JJQ9it6W4OubuqGH_-47" value="" style="ellipse;whiteSpace=wrap;html=1;fontFamily=Times New Roman;fontSize=16;" parent="1" vertex="1">
          <mxGeometry x="384" y="319" width="182" height="60" as="geometry" />
        </mxCell>
        <mxCell id="QM5JJQ9it6W4OubuqGH_-48" value="&lt;font style=&quot;font-size: 16px;&quot;&gt;Просмотр выходных дней&lt;/font&gt;" style="text;html=1;strokeColor=none;fillColor=none;align=center;verticalAlign=middle;whiteSpace=wrap;rounded=0;fontFamily=Times New Roman;fontSize=16;" parent="1" vertex="1">
          <mxGeometry x="402" y="329" width="144" height="40" as="geometry" />
        </mxCell>
        <mxCell id="QM5JJQ9it6W4OubuqGH_-50" value="" style="ellipse;whiteSpace=wrap;html=1;fontFamily=Times New Roman;fontSize=16;" parent="1" vertex="1">
          <mxGeometry x="367.75" y="107" width="182" height="60" as="geometry" />
        </mxCell>
        <mxCell id="QM5JJQ9it6W4OubuqGH_-53" value="&lt;font style=&quot;font-size: 16px;&quot;&gt;Веб-приложение для управления &lt;i style=&quot;font-size: 16px;&quot;&gt;IT&lt;/i&gt;-компанией&lt;/font&gt;" style="text;html=1;align=center;verticalAlign=middle;resizable=0;points=[];autosize=1;strokeColor=none;fillColor=none;fontFamily=Times New Roman;fontSize=16;" parent="1" vertex="1">
          <mxGeometry x="329" y="75" width="339" height="31" as="geometry" />
        </mxCell>
        <mxCell id="QM5JJQ9it6W4OubuqGH_-54" value="" style="ellipse;whiteSpace=wrap;html=1;fontFamily=Times New Roman;fontSize=16;" parent="1" vertex="1">
          <mxGeometry x="443.75" y="167" width="182" height="60" as="geometry" />
        </mxCell>
        <mxCell id="QM5JJQ9it6W4OubuqGH_-55" value="&lt;font style=&quot;font-size: 16px;&quot;&gt;Просмотр кандидатов&lt;/font&gt;" style="text;html=1;strokeColor=none;fillColor=none;align=center;verticalAlign=middle;whiteSpace=wrap;rounded=0;fontFamily=Times New Roman;fontSize=16;" parent="1" vertex="1">
          <mxGeometry x="461.75" y="177" width="144" height="40" as="geometry" />
        </mxCell>
        <mxCell id="QM5JJQ9it6W4OubuqGH_-57" value="" style="ellipse;whiteSpace=wrap;html=1;fontFamily=Times New Roman;fontSize=16;" parent="1" vertex="1">
          <mxGeometry x="776" y="261.5" width="182" height="60" as="geometry" />
        </mxCell>
        <mxCell id="QM5JJQ9it6W4OubuqGH_-58" value="&lt;font style=&quot;font-size: 16px;&quot;&gt;&lt;span style=&quot;font-size: 16px;&quot;&gt;Изменить персональную информацию&lt;/span&gt;&lt;/font&gt;" style="text;html=1;strokeColor=none;fillColor=none;align=center;verticalAlign=middle;whiteSpace=wrap;rounded=0;fontFamily=Times New Roman;fontSize=16;" parent="1" vertex="1">
          <mxGeometry x="794" y="271.5" width="144" height="40" as="geometry" />
        </mxCell>
        <mxCell id="QM5JJQ9it6W4OubuqGH_-7" value="&lt;font style=&quot;font-size: 16px;&quot;&gt;&amp;lt;&amp;lt;расширить&amp;gt;&amp;gt;&lt;/font&gt;" style="endArrow=none;endSize=11;endFill=0;html=1;rounded=0;dashed=1;dashPattern=8 8;jumpSize=5;startSize=11;startArrow=classicThin;startFill=1;fontFamily=Times New Roman;fontSize=16;" parent="1" source="QM5JJQ9it6W4OubuqGH_-21" target="QM5JJQ9it6W4OubuqGH_-57" edge="1">
          <mxGeometry width="160" relative="1" as="geometry">
            <mxPoint x="528.5" y="196.5" as="sourcePoint" />
            <mxPoint x="633.5" y="253.5" as="targetPoint" />
          </mxGeometry>
        </mxCell>
        <mxCell id="QM5JJQ9it6W4OubuqGH_-61" value="" style="ellipse;whiteSpace=wrap;html=1;fontFamily=Times New Roman;fontSize=16;" parent="1" vertex="1">
          <mxGeometry x="663.75" y="164" width="182" height="60" as="geometry" />
        </mxCell>
        <mxCell id="QM5JJQ9it6W4OubuqGH_-62" value="&lt;font style=&quot;font-size: 16px;&quot;&gt;&lt;span style=&quot;font-size: 16px;&quot;&gt;Создать запрос на отпуск&lt;/span&gt;&lt;/font&gt;" style="text;html=1;strokeColor=none;fillColor=none;align=center;verticalAlign=middle;whiteSpace=wrap;rounded=0;fontFamily=Times New Roman;fontSize=16;" parent="1" vertex="1">
          <mxGeometry x="682.75" y="174" width="144" height="40" as="geometry" />
        </mxCell>
        <mxCell id="QM5JJQ9it6W4OubuqGH_-63" value="&lt;font style=&quot;font-size: 16px;&quot;&gt;&amp;lt;&amp;lt;расширить&amp;gt;&amp;gt;&lt;/font&gt;" style="endArrow=none;endSize=11;endFill=0;html=1;rounded=0;dashed=1;dashPattern=8 8;jumpSize=5;startSize=11;startArrow=classicThin;startFill=1;fontFamily=Times New Roman;fontSize=16;" parent="1" source="QM5JJQ9it6W4OubuqGH_-21" target="QM5JJQ9it6W4OubuqGH_-61" edge="1">
          <mxGeometry width="160" relative="1" as="geometry">
            <mxPoint x="383" y="272" as="sourcePoint" />
            <mxPoint x="633.5" y="323" as="targetPoint" />
          </mxGeometry>
        </mxCell>
        <mxCell id="QM5JJQ9it6W4OubuqGH_-64" value="" style="ellipse;whiteSpace=wrap;html=1;fontFamily=Times New Roman;fontSize=16;" parent="1" vertex="1">
          <mxGeometry x="552" y="291.5" width="182" height="60" as="geometry" />
        </mxCell>
        <mxCell id="QM5JJQ9it6W4OubuqGH_-65" value="&lt;font style=&quot;font-size: 16px;&quot;&gt;&lt;span style=&quot;font-size: 16px;&quot;&gt;Создать запрос на больничный&lt;/span&gt;&lt;/font&gt;" style="text;html=1;strokeColor=none;fillColor=none;align=center;verticalAlign=middle;whiteSpace=wrap;rounded=0;fontFamily=Times New Roman;fontSize=16;" parent="1" vertex="1">
          <mxGeometry x="570" y="301.5" width="144" height="40" as="geometry" />
        </mxCell>
        <mxCell id="QM5JJQ9it6W4OubuqGH_-66" value="&lt;font style=&quot;font-size: 16px;&quot;&gt;&amp;lt;&amp;lt;расширить&lt;span style=&quot;font-size: 16px;&quot;&gt;&amp;gt;&amp;gt;&lt;/span&gt;&lt;/font&gt;" style="endArrow=none;endSize=11;endFill=0;html=1;rounded=0;dashed=1;dashPattern=8 8;jumpSize=5;startSize=11;startArrow=classicThin;startFill=1;fontFamily=Times New Roman;fontSize=16;" parent="1" source="QM5JJQ9it6W4OubuqGH_-21" target="QM5JJQ9it6W4OubuqGH_-64" edge="1">
          <mxGeometry width="160" relative="1" as="geometry">
            <mxPoint x="420" y="330.5" as="sourcePoint" />
            <mxPoint x="670.5" y="381.5" as="targetPoint" />
          </mxGeometry>
        </mxCell>
        <mxCell id="QM5JJQ9it6W4OubuqGH_-67" value="" style="ellipse;whiteSpace=wrap;html=1;fontFamily=Times New Roman;fontSize=16;" parent="1" vertex="1">
          <mxGeometry x="474" y="374.5" width="182" height="60" as="geometry" />
        </mxCell>
        <mxCell id="QM5JJQ9it6W4OubuqGH_-68" value="&lt;font style=&quot;font-size: 16px;&quot;&gt;&lt;span style=&quot;font-size: 16px;&quot;&gt;Добавить фото пользователя&lt;/span&gt;&lt;/font&gt;" style="text;html=1;strokeColor=none;fillColor=none;align=center;verticalAlign=middle;whiteSpace=wrap;rounded=0;fontFamily=Times New Roman;fontSize=16;" parent="1" vertex="1">
          <mxGeometry x="492" y="384.5" width="144" height="40" as="geometry" />
        </mxCell>
        <mxCell id="QM5JJQ9it6W4OubuqGH_-69" value="&lt;font style=&quot;font-size: 16px;&quot;&gt;&amp;lt;&amp;lt;расширить&amp;gt;&amp;gt;&lt;/font&gt;" style="endArrow=none;endSize=11;endFill=0;html=1;rounded=0;dashed=1;dashPattern=8 8;jumpSize=5;startSize=11;startArrow=classicThin;startFill=1;fontFamily=Times New Roman;fontSize=16;" parent="1" source="QM5JJQ9it6W4OubuqGH_-21" target="QM5JJQ9it6W4OubuqGH_-67" edge="1">
          <mxGeometry width="160" relative="1" as="geometry">
            <mxPoint x="420" y="405.5" as="sourcePoint" />
            <mxPoint x="670.5" y="456.5" as="targetPoint" />
          </mxGeometry>
        </mxCell>
        <mxCell id="QM5JJQ9it6W4OubuqGH_-105" value="" style="ellipse;whiteSpace=wrap;html=1;fontFamily=Times New Roman;fontSize=16;" parent="1" vertex="1">
          <mxGeometry x="1276" y="312.5" width="182" height="60" as="geometry" />
        </mxCell>
        <mxCell id="QM5JJQ9it6W4OubuqGH_-106" value="&lt;font style=&quot;font-size: 16px;&quot;&gt;Просмотр пользователей&lt;/font&gt;" style="text;html=1;strokeColor=none;fillColor=none;align=center;verticalAlign=middle;whiteSpace=wrap;rounded=0;fontFamily=Times New Roman;fontSize=16;" parent="1" vertex="1">
          <mxGeometry x="1294" y="322.5" width="144" height="40" as="geometry" />
        </mxCell>
        <mxCell id="QM5JJQ9it6W4OubuqGH_-107" value="" style="ellipse;whiteSpace=wrap;html=1;fontFamily=Times New Roman;fontSize=16;" parent="1" vertex="1">
          <mxGeometry x="811" y="644" width="182" height="60" as="geometry" />
        </mxCell>
        <mxCell id="QM5JJQ9it6W4OubuqGH_-108" value="&lt;font style=&quot;font-size: 16px;&quot;&gt;Просмотр выходных дней работников&lt;/font&gt;" style="text;html=1;strokeColor=none;fillColor=none;align=center;verticalAlign=middle;whiteSpace=wrap;rounded=0;fontFamily=Times New Roman;fontSize=16;" parent="1" vertex="1">
          <mxGeometry x="829" y="654" width="144" height="40" as="geometry" />
        </mxCell>
        <mxCell id="QM5JJQ9it6W4OubuqGH_-109" value="" style="ellipse;whiteSpace=wrap;html=1;fontFamily=Times New Roman;fontSize=16;" parent="1" vertex="1">
          <mxGeometry x="775" y="712" width="182" height="60" as="geometry" />
        </mxCell>
        <mxCell id="QM5JJQ9it6W4OubuqGH_-110" value="&lt;font style=&quot;font-size: 16px;&quot;&gt;Просмотр списка мероприятий&lt;/font&gt;" style="text;html=1;strokeColor=none;fillColor=none;align=center;verticalAlign=middle;whiteSpace=wrap;rounded=0;fontFamily=Times New Roman;fontSize=16;" parent="1" vertex="1">
          <mxGeometry x="793" y="722" width="144" height="40" as="geometry" />
        </mxCell>
        <mxCell id="QM5JJQ9it6W4OubuqGH_-111" value="" style="ellipse;whiteSpace=wrap;html=1;fontFamily=Times New Roman;fontSize=16;" parent="1" vertex="1">
          <mxGeometry x="1345" y="212.5" width="182" height="60" as="geometry" />
        </mxCell>
        <mxCell id="QM5JJQ9it6W4OubuqGH_-112" value="&lt;font style=&quot;font-size: 16px;&quot;&gt;Просмотр кандидатов&lt;/font&gt;" style="text;html=1;strokeColor=none;fillColor=none;align=center;verticalAlign=middle;whiteSpace=wrap;rounded=0;fontFamily=Times New Roman;fontSize=16;" parent="1" vertex="1">
          <mxGeometry x="1363" y="222.5" width="144" height="40" as="geometry" />
        </mxCell>
        <mxCell id="QM5JJQ9it6W4OubuqGH_-121" value="" style="ellipse;whiteSpace=wrap;html=1;fontFamily=Times New Roman;fontSize=16;" parent="1" vertex="1">
          <mxGeometry x="932" y="298" width="191" height="63" as="geometry" />
        </mxCell>
        <mxCell id="QM5JJQ9it6W4OubuqGH_-122" value="&lt;font style=&quot;font-size: 16px;&quot;&gt;&lt;span style=&quot;font-size: 16px;&quot;&gt;Изменить допустимое количество дней отпуска&lt;/span&gt;&lt;/font&gt;" style="text;html=1;strokeColor=none;fillColor=none;align=center;verticalAlign=middle;whiteSpace=wrap;rounded=0;fontFamily=Times New Roman;fontSize=16;" parent="1" vertex="1">
          <mxGeometry x="948" y="312.5" width="165.25" height="43.5" as="geometry" />
        </mxCell>
        <mxCell id="QM5JJQ9it6W4OubuqGH_-123" value="&lt;font style=&quot;font-size: 16px;&quot;&gt;&amp;lt;&amp;lt;расширить&amp;gt;&amp;gt;&lt;/font&gt;" style="endArrow=none;endSize=11;endFill=0;html=1;rounded=0;dashed=1;dashPattern=8 8;jumpSize=5;startSize=11;startArrow=classicThin;startFill=1;fontFamily=Times New Roman;fontSize=16;" parent="1" source="QM5JJQ9it6W4OubuqGH_-105" target="QM5JJQ9it6W4OubuqGH_-121" edge="1">
          <mxGeometry width="160" relative="1" as="geometry">
            <mxPoint x="1324.9795763840652" y="343.11219672681864" as="sourcePoint" />
            <mxPoint x="763" y="122.09000000000003" as="targetPoint" />
          </mxGeometry>
        </mxCell>
        <mxCell id="QM5JJQ9it6W4OubuqGH_-127" value="" style="ellipse;whiteSpace=wrap;html=1;fontFamily=Times New Roman;fontSize=16;" parent="1" vertex="1">
          <mxGeometry x="1081" y="401.5" width="182" height="60" as="geometry" />
        </mxCell>
        <mxCell id="QM5JJQ9it6W4OubuqGH_-128" value="&lt;font style=&quot;font-size: 16px;&quot;&gt;&lt;span style=&quot;font-size: 16px;&quot;&gt;Редактировать пользователя&lt;/span&gt;&lt;/font&gt;" style="text;html=1;strokeColor=none;fillColor=none;align=center;verticalAlign=middle;whiteSpace=wrap;rounded=0;fontFamily=Times New Roman;fontSize=16;" parent="1" vertex="1">
          <mxGeometry x="1099" y="411.5" width="144" height="40" as="geometry" />
        </mxCell>
        <mxCell id="QM5JJQ9it6W4OubuqGH_-129" value="&lt;font style=&quot;font-size: 16px;&quot;&gt;&amp;lt;&amp;lt;расширить&amp;gt;&amp;gt;&lt;/font&gt;" style="endArrow=none;endSize=11;endFill=0;html=1;rounded=0;dashed=1;dashPattern=8 8;jumpSize=5;startSize=11;startArrow=classicThin;startFill=1;fontFamily=Times New Roman;fontSize=16;" parent="1" source="QM5JJQ9it6W4OubuqGH_-105" target="QM5JJQ9it6W4OubuqGH_-127" edge="1">
          <mxGeometry width="160" relative="1" as="geometry">
            <mxPoint x="1375" y="432.5" as="sourcePoint" />
            <mxPoint x="788.5" y="205.09000000000003" as="targetPoint" />
          </mxGeometry>
        </mxCell>
        <mxCell id="QM5JJQ9it6W4OubuqGH_-130" value="" style="ellipse;whiteSpace=wrap;html=1;fontFamily=Times New Roman;fontSize=16;" parent="1" vertex="1">
          <mxGeometry x="903" y="366.5" width="182" height="60" as="geometry" />
        </mxCell>
        <mxCell id="QM5JJQ9it6W4OubuqGH_-131" value="&lt;font style=&quot;font-size: 16px;&quot;&gt;&lt;span style=&quot;font-size: 16px;&quot;&gt;Удалить пользователя&lt;/span&gt;&lt;/font&gt;" style="text;html=1;strokeColor=none;fillColor=none;align=center;verticalAlign=middle;whiteSpace=wrap;rounded=0;fontFamily=Times New Roman;fontSize=16;" parent="1" vertex="1">
          <mxGeometry x="921" y="376.5" width="144" height="40" as="geometry" />
        </mxCell>
        <mxCell id="QM5JJQ9it6W4OubuqGH_-132" value="&lt;font style=&quot;font-size: 16px;&quot;&gt;&amp;lt;&amp;lt;расширить&amp;gt;&amp;gt;&lt;/font&gt;" style="endArrow=none;endSize=11;endFill=0;html=1;rounded=0;dashed=1;dashPattern=8 8;jumpSize=5;startSize=11;startArrow=classicThin;startFill=1;fontFamily=Times New Roman;fontSize=16;" parent="1" source="QM5JJQ9it6W4OubuqGH_-105" target="QM5JJQ9it6W4OubuqGH_-130" edge="1">
          <mxGeometry width="160" relative="1" as="geometry">
            <mxPoint x="1375" y="472.5" as="sourcePoint" />
            <mxPoint x="788.5" y="245.09000000000003" as="targetPoint" />
          </mxGeometry>
        </mxCell>
        <mxCell id="QM5JJQ9it6W4OubuqGH_-133" value="" style="ellipse;whiteSpace=wrap;html=1;fontFamily=Times New Roman;fontSize=16;" parent="1" vertex="1">
          <mxGeometry x="1143" y="114" width="191" height="63" as="geometry" />
        </mxCell>
        <mxCell id="QM5JJQ9it6W4OubuqGH_-134" value="&lt;font style=&quot;font-size: 16px;&quot;&gt;&lt;span style=&quot;font-size: 16px;&quot;&gt;Изменить статус кандидата&lt;/span&gt;&lt;/font&gt;" style="text;html=1;strokeColor=none;fillColor=none;align=center;verticalAlign=middle;whiteSpace=wrap;rounded=0;fontFamily=Times New Roman;fontSize=16;" parent="1" vertex="1">
          <mxGeometry x="1166.5" y="127" width="144" height="40" as="geometry" />
        </mxCell>
        <mxCell id="QM5JJQ9it6W4OubuqGH_-135" value="&lt;font style=&quot;font-size: 16px;&quot;&gt;&amp;lt;&amp;lt;расширить&amp;gt;&amp;gt;&lt;/font&gt;" style="endArrow=none;endSize=11;endFill=0;html=1;rounded=0;dashed=1;dashPattern=8 8;jumpSize=5;startSize=11;startArrow=classicThin;startFill=1;fontFamily=Times New Roman;fontSize=16;" parent="1" source="QM5JJQ9it6W4OubuqGH_-111" target="QM5JJQ9it6W4OubuqGH_-133" edge="1">
          <mxGeometry width="160" relative="1" as="geometry">
            <mxPoint x="1391" y="145.5" as="sourcePoint" />
            <mxPoint x="822.5" y="-90.91000000000008" as="targetPoint" />
          </mxGeometry>
        </mxCell>
        <mxCell id="QM5JJQ9it6W4OubuqGH_-136" value="" style="ellipse;whiteSpace=wrap;html=1;fontFamily=Times New Roman;fontSize=16;" parent="1" vertex="1">
          <mxGeometry x="985" y="152.5" width="191" height="63" as="geometry" />
        </mxCell>
        <mxCell id="QM5JJQ9it6W4OubuqGH_-137" value="&lt;font style=&quot;font-size: 16px;&quot;&gt;&lt;span style=&quot;font-size: 16px;&quot;&gt;Удалить кандидата&lt;/span&gt;&lt;/font&gt;" style="text;html=1;strokeColor=none;fillColor=none;align=center;verticalAlign=middle;whiteSpace=wrap;rounded=0;fontFamily=Times New Roman;fontSize=16;" parent="1" vertex="1">
          <mxGeometry x="1008.5" y="165.5" width="144" height="40" as="geometry" />
        </mxCell>
        <mxCell id="QM5JJQ9it6W4OubuqGH_-138" value="&lt;font style=&quot;font-size: 16px;&quot;&gt;&amp;lt;&amp;lt;расширить&amp;gt;&amp;gt;&lt;/font&gt;" style="endArrow=none;endSize=11;endFill=0;html=1;rounded=0;dashed=1;dashPattern=8 8;jumpSize=5;startSize=11;startArrow=classicThin;startFill=1;fontFamily=Times New Roman;fontSize=16;" parent="1" source="QM5JJQ9it6W4OubuqGH_-111" target="QM5JJQ9it6W4OubuqGH_-136" edge="1">
          <mxGeometry width="160" relative="1" as="geometry">
            <mxPoint x="1254" y="238.5" as="sourcePoint" />
            <mxPoint x="764.5" y="-18.910000000000082" as="targetPoint" />
          </mxGeometry>
        </mxCell>
        <mxCell id="QM5JJQ9it6W4OubuqGH_-139" value="" style="ellipse;whiteSpace=wrap;html=1;fontFamily=Times New Roman;fontSize=16;" parent="1" vertex="1">
          <mxGeometry x="990.5" y="227.5" width="191" height="63" as="geometry" />
        </mxCell>
        <mxCell id="QM5JJQ9it6W4OubuqGH_-140" value="&lt;font style=&quot;font-size: 16px;&quot;&gt;&lt;span style=&quot;font-size: 16px;&quot;&gt;Изменить информацию о кандидате&lt;/span&gt;&lt;/font&gt;" style="text;html=1;strokeColor=none;fillColor=none;align=center;verticalAlign=middle;whiteSpace=wrap;rounded=0;fontFamily=Times New Roman;fontSize=16;" parent="1" vertex="1">
          <mxGeometry x="1014" y="240.5" width="144" height="40" as="geometry" />
        </mxCell>
        <mxCell id="QM5JJQ9it6W4OubuqGH_-141" value="&lt;font style=&quot;font-size: 16px;&quot;&gt;&amp;lt;&amp;lt;расширить&amp;gt;&amp;gt;&lt;/font&gt;" style="endArrow=none;endSize=11;endFill=0;html=1;rounded=0;dashed=1;dashPattern=8 8;jumpSize=5;startSize=11;startArrow=classicThin;startFill=1;fontFamily=Times New Roman;fontSize=16;" parent="1" source="QM5JJQ9it6W4OubuqGH_-111" target="QM5JJQ9it6W4OubuqGH_-139" edge="1">
          <mxGeometry width="160" relative="1" as="geometry">
            <mxPoint x="1272" y="323.5" as="sourcePoint" />
            <mxPoint x="782.5" y="66.09000000000003" as="targetPoint" />
          </mxGeometry>
        </mxCell>
        <mxCell id="QM5JJQ9it6W4OubuqGH_-142" value="" style="ellipse;whiteSpace=wrap;html=1;fontFamily=Times New Roman;fontSize=16;" parent="1" vertex="1">
          <mxGeometry x="1347" y="99" width="191" height="63" as="geometry" />
        </mxCell>
        <mxCell id="QM5JJQ9it6W4OubuqGH_-143" value="&lt;font style=&quot;font-size: 16px;&quot;&gt;&lt;span style=&quot;font-size: 16px;&quot;&gt;Создать пользователя по кандидату&lt;/span&gt;&lt;/font&gt;" style="text;html=1;strokeColor=none;fillColor=none;align=center;verticalAlign=middle;whiteSpace=wrap;rounded=0;fontFamily=Times New Roman;fontSize=16;" parent="1" vertex="1">
          <mxGeometry x="1370.5" y="112" width="144" height="40" as="geometry" />
        </mxCell>
        <mxCell id="QM5JJQ9it6W4OubuqGH_-144" value="&lt;font style=&quot;font-size: 16px;&quot;&gt;&amp;lt;&amp;lt;расширить&amp;gt;&amp;gt;&lt;/font&gt;" style="endArrow=none;endSize=11;endFill=0;html=1;rounded=0;dashed=1;dashPattern=8 8;jumpSize=5;startSize=11;startArrow=classicThin;startFill=1;fontFamily=Times New Roman;fontSize=16;" parent="1" source="QM5JJQ9it6W4OubuqGH_-111" target="QM5JJQ9it6W4OubuqGH_-142" edge="1">
          <mxGeometry width="160" relative="1" as="geometry">
            <mxPoint x="1779" y="170.5" as="sourcePoint" />
            <mxPoint x="1289.5" y="-86.91000000000008" as="targetPoint" />
          </mxGeometry>
        </mxCell>
        <mxCell id="QM5JJQ9it6W4OubuqGH_-145" value="" style="ellipse;whiteSpace=wrap;html=1;fontFamily=Times New Roman;fontSize=16;" parent="1" vertex="1">
          <mxGeometry x="502" y="722.5" width="163" height="54.5" as="geometry" />
        </mxCell>
        <mxCell id="QM5JJQ9it6W4OubuqGH_-146" value="&lt;font style=&quot;font-size: 16px;&quot;&gt;&lt;span style=&quot;font-size: 16px;&quot;&gt;Удалить выходной&lt;/span&gt;&lt;/font&gt;" style="text;html=1;strokeColor=none;fillColor=none;align=center;verticalAlign=middle;whiteSpace=wrap;rounded=0;fontFamily=Times New Roman;fontSize=16;" parent="1" vertex="1">
          <mxGeometry x="514.75" y="731" width="144" height="40" as="geometry" />
        </mxCell>
        <mxCell id="QM5JJQ9it6W4OubuqGH_-147" value="&lt;font style=&quot;font-size: 16px;&quot;&gt;&amp;lt;&amp;lt;расширить&amp;gt;&amp;gt;&lt;/font&gt;" style="endArrow=none;endSize=11;endFill=0;html=1;rounded=0;dashed=1;dashPattern=8 8;jumpSize=5;startSize=11;startArrow=classicThin;startFill=1;fontFamily=Times New Roman;fontSize=16;" parent="1" source="QM5JJQ9it6W4OubuqGH_-107" target="QM5JJQ9it6W4OubuqGH_-145" edge="1">
          <mxGeometry width="160" relative="1" as="geometry">
            <mxPoint x="990.5" y="896.5" as="sourcePoint" />
            <mxPoint x="501" y="639.09" as="targetPoint" />
          </mxGeometry>
        </mxCell>
        <mxCell id="QM5JJQ9it6W4OubuqGH_-148" value="" style="ellipse;whiteSpace=wrap;html=1;fontFamily=Times New Roman;fontSize=16;" parent="1" vertex="1">
          <mxGeometry x="483" y="642.5" width="191" height="63" as="geometry" />
        </mxCell>
        <mxCell id="QM5JJQ9it6W4OubuqGH_-149" value="&lt;font style=&quot;font-size: 16px;&quot;&gt;&lt;span style=&quot;font-size: 16px;&quot;&gt;Просмотр не одобренных выходных&lt;/span&gt;&lt;/font&gt;" style="text;html=1;strokeColor=none;fillColor=none;align=center;verticalAlign=middle;whiteSpace=wrap;rounded=0;fontFamily=Times New Roman;fontSize=16;" parent="1" vertex="1">
          <mxGeometry x="506.5" y="655.5" width="144" height="40" as="geometry" />
        </mxCell>
        <mxCell id="QM5JJQ9it6W4OubuqGH_-150" value="&lt;font style=&quot;font-size: 16px;&quot;&gt;&amp;lt;&amp;lt;расширить&amp;gt;&amp;gt;&lt;/font&gt;" style="endArrow=none;endSize=11;endFill=0;html=1;rounded=0;dashed=1;dashPattern=8 8;jumpSize=5;startSize=11;startArrow=classicThin;startFill=1;fontFamily=Times New Roman;fontSize=16;" parent="1" source="QM5JJQ9it6W4OubuqGH_-107" target="QM5JJQ9it6W4OubuqGH_-148" edge="1">
          <mxGeometry width="160" relative="1" as="geometry">
            <mxPoint x="781" y="603.5" as="sourcePoint" />
            <mxPoint x="283" y="576.09" as="targetPoint" />
          </mxGeometry>
        </mxCell>
        <mxCell id="QM5JJQ9it6W4OubuqGH_-151" value="&lt;font style=&quot;font-size: 16px;&quot;&gt;&amp;lt;&amp;lt;расширить&amp;gt;&amp;gt;&lt;/font&gt;" style="endArrow=none;endSize=11;endFill=0;html=1;rounded=0;dashed=1;dashPattern=8 8;jumpSize=5;startSize=11;startArrow=classicThin;startFill=1;fontFamily=Times New Roman;fontSize=16;" parent="1" source="QM5JJQ9it6W4OubuqGH_-148" target="QM5JJQ9it6W4OubuqGH_-154" edge="1">
          <mxGeometry width="160" relative="1" as="geometry">
            <mxPoint x="544" y="655.5" as="sourcePoint" />
            <mxPoint x="374" y="686.5" as="targetPoint" />
          </mxGeometry>
        </mxCell>
        <mxCell id="QM5JJQ9it6W4OubuqGH_-152" value="" style="ellipse;whiteSpace=wrap;html=1;fontFamily=Times New Roman;fontSize=16;" parent="1" vertex="1">
          <mxGeometry x="336" y="578" width="128" height="45.5" as="geometry" />
        </mxCell>
        <mxCell id="QM5JJQ9it6W4OubuqGH_-153" value="&lt;font style=&quot;font-size: 16px;&quot;&gt;&lt;span style=&quot;font-size: 16px;&quot;&gt;Одобрить выходной&lt;/span&gt;&lt;/font&gt;" style="text;html=1;strokeColor=none;fillColor=none;align=center;verticalAlign=middle;whiteSpace=wrap;rounded=0;fontFamily=Times New Roman;fontSize=16;" parent="1" vertex="1">
          <mxGeometry x="338" y="581.88" width="128" height="37.75" as="geometry" />
        </mxCell>
        <mxCell id="QM5JJQ9it6W4OubuqGH_-154" value="" style="ellipse;whiteSpace=wrap;html=1;fontFamily=Times New Roman;fontSize=16;" parent="1" vertex="1">
          <mxGeometry x="345.5" y="722.5" width="137" height="57" as="geometry" />
        </mxCell>
        <mxCell id="QM5JJQ9it6W4OubuqGH_-155" value="&lt;font style=&quot;font-size: 16px;&quot;&gt;&lt;span style=&quot;font-size: 16px;&quot;&gt;Отклонить выходной&lt;/span&gt;&lt;/font&gt;" style="text;html=1;strokeColor=none;fillColor=none;align=center;verticalAlign=middle;whiteSpace=wrap;rounded=0;fontFamily=Times New Roman;fontSize=16;" parent="1" vertex="1">
          <mxGeometry x="342" y="731" width="144" height="40" as="geometry" />
        </mxCell>
        <mxCell id="QM5JJQ9it6W4OubuqGH_-156" value="&lt;font style=&quot;font-size: 16px;&quot;&gt;&amp;lt;&amp;lt;расширить&amp;gt;&amp;gt;&lt;/font&gt;" style="endArrow=none;endSize=11;endFill=0;html=1;rounded=0;dashed=1;dashPattern=8 8;jumpSize=5;startSize=11;startArrow=classicThin;startFill=1;fontFamily=Times New Roman;fontSize=16;" parent="1" source="QM5JJQ9it6W4OubuqGH_-148" target="QM5JJQ9it6W4OubuqGH_-152" edge="1">
          <mxGeometry width="160" relative="1" as="geometry">
            <mxPoint x="616" y="721.5" as="sourcePoint" />
            <mxPoint x="449" y="744.5" as="targetPoint" />
          </mxGeometry>
        </mxCell>
        <mxCell id="QM5JJQ9it6W4OubuqGH_-157" value="" style="ellipse;whiteSpace=wrap;html=1;fontFamily=Times New Roman;fontSize=16;" parent="1" vertex="1">
          <mxGeometry x="646" y="818" width="191" height="63" as="geometry" />
        </mxCell>
        <mxCell id="QM5JJQ9it6W4OubuqGH_-158" value="&lt;font style=&quot;font-size: 16px;&quot;&gt;&lt;span style=&quot;font-size: 16px;&quot;&gt;Добавить мероприятие&lt;/span&gt;&lt;/font&gt;" style="text;html=1;strokeColor=none;fillColor=none;align=center;verticalAlign=middle;whiteSpace=wrap;rounded=0;fontFamily=Times New Roman;fontSize=16;" parent="1" vertex="1">
          <mxGeometry x="669.5" y="831" width="144" height="40" as="geometry" />
        </mxCell>
        <mxCell id="QM5JJQ9it6W4OubuqGH_-160" value="" style="ellipse;whiteSpace=wrap;html=1;fontFamily=Times New Roman;fontSize=16;" parent="1" vertex="1">
          <mxGeometry x="432" y="824" width="191" height="63" as="geometry" />
        </mxCell>
        <mxCell id="QM5JJQ9it6W4OubuqGH_-161" value="&lt;font style=&quot;font-size: 16px;&quot;&gt;&lt;span style=&quot;font-size: 16px;&quot;&gt;Удалить мероприятие&lt;/span&gt;&lt;/font&gt;" style="text;html=1;strokeColor=none;fillColor=none;align=center;verticalAlign=middle;whiteSpace=wrap;rounded=0;fontFamily=Times New Roman;fontSize=16;" parent="1" vertex="1">
          <mxGeometry x="455.5" y="837" width="144" height="40" as="geometry" />
        </mxCell>
        <mxCell id="QM5JJQ9it6W4OubuqGH_-162" value="&lt;font style=&quot;font-size: 16px;&quot;&gt;&amp;lt;&amp;lt;расширить&amp;gt;&amp;gt;&lt;/font&gt;" style="endArrow=none;endSize=11;endFill=0;html=1;rounded=0;dashed=1;dashPattern=8 8;jumpSize=5;startSize=11;startArrow=classicThin;startFill=1;fontFamily=Times New Roman;fontSize=16;" parent="1" source="QM5JJQ9it6W4OubuqGH_-109" target="QM5JJQ9it6W4OubuqGH_-160" edge="1">
          <mxGeometry width="160" relative="1" as="geometry">
            <mxPoint x="1292" y="775.5" as="sourcePoint" />
            <mxPoint x="827" y="723.09" as="targetPoint" />
          </mxGeometry>
        </mxCell>
        <mxCell id="QM5JJQ9it6W4OubuqGH_-163" value="" style="ellipse;whiteSpace=wrap;html=1;fontFamily=Times New Roman;fontSize=16;" parent="1" vertex="1">
          <mxGeometry x="1266" y="415" width="182" height="60" as="geometry" />
        </mxCell>
        <mxCell id="QM5JJQ9it6W4OubuqGH_-164" value="&lt;font style=&quot;font-size: 16px;&quot;&gt;Создать пользователя&lt;/font&gt;" style="text;html=1;strokeColor=none;fillColor=none;align=center;verticalAlign=middle;whiteSpace=wrap;rounded=0;fontFamily=Times New Roman;fontSize=16;" parent="1" vertex="1">
          <mxGeometry x="1284" y="425" width="144" height="40" as="geometry" />
        </mxCell>
        <mxCell id="QM5JJQ9it6W4OubuqGH_-174" value="" style="ellipse;whiteSpace=wrap;html=1;fontFamily=Times New Roman;fontSize=16;" parent="1" vertex="1">
          <mxGeometry x="1376" y="690" width="182" height="60" as="geometry" />
        </mxCell>
        <mxCell id="QM5JJQ9it6W4OubuqGH_-175" value="&lt;font style=&quot;font-size: 16px;&quot;&gt;Создать кадровика&lt;/font&gt;" style="text;html=1;strokeColor=none;fillColor=none;align=center;verticalAlign=middle;whiteSpace=wrap;rounded=0;fontFamily=Times New Roman;fontSize=16;" parent="1" vertex="1">
          <mxGeometry x="1394" y="700" width="144" height="40" as="geometry" />
        </mxCell>
        <mxCell id="QM5JJQ9it6W4OubuqGH_-177" value="" style="ellipse;whiteSpace=wrap;html=1;fontFamily=Times New Roman;fontSize=16;" parent="1" vertex="1">
          <mxGeometry x="1094" y="729.5" width="182" height="60" as="geometry" />
        </mxCell>
        <mxCell id="QM5JJQ9it6W4OubuqGH_-178" value="&lt;font style=&quot;font-size: 16px;&quot;&gt;Просмотр статистики о работниках&lt;/font&gt;" style="text;html=1;strokeColor=none;fillColor=none;align=center;verticalAlign=middle;whiteSpace=wrap;rounded=0;fontFamily=Times New Roman;fontSize=16;" parent="1" vertex="1">
          <mxGeometry x="1112" y="739.5" width="144" height="40" as="geometry" />
        </mxCell>
        <mxCell id="QM5JJQ9it6W4OubuqGH_-180" value="" style="ellipse;whiteSpace=wrap;html=1;fontFamily=Times New Roman;fontSize=16;" parent="1" vertex="1">
          <mxGeometry x="929" y="818" width="191" height="63" as="geometry" />
        </mxCell>
        <mxCell id="QM5JJQ9it6W4OubuqGH_-181" value="&lt;font style=&quot;font-size: 16px;&quot;&gt;&lt;span style=&quot;font-size: 16px;&quot;&gt;Добавить вакансию&lt;/span&gt;&lt;/font&gt;" style="text;html=1;strokeColor=none;fillColor=none;align=center;verticalAlign=middle;whiteSpace=wrap;rounded=0;fontFamily=Times New Roman;fontSize=16;" parent="1" vertex="1">
          <mxGeometry x="952.5" y="831" width="144" height="40" as="geometry" />
        </mxCell>
        <mxCell id="QM5JJQ9it6W4OubuqGH_-182" value="&lt;font style=&quot;font-size: 16px;&quot;&gt;&amp;lt;&amp;lt;расширить&amp;gt;&amp;gt;&lt;/font&gt;" style="endArrow=none;endSize=11;endFill=0;html=1;rounded=0;dashed=1;dashPattern=8 8;jumpSize=5;startSize=11;startArrow=classicThin;startFill=1;fontFamily=Times New Roman;fontSize=16;" parent="1" source="QM5JJQ9it6W4OubuqGH_-177" target="QM5JJQ9it6W4OubuqGH_-180" edge="1">
          <mxGeometry width="160" relative="1" as="geometry">
            <mxPoint x="1297.4625607720814" y="712.5033500339719" as="sourcePoint" />
            <mxPoint x="866.5" y="644.8000000000001" as="targetPoint" />
          </mxGeometry>
        </mxCell>
        <mxCell id="QM5JJQ9it6W4OubuqGH_-183" value="" style="ellipse;whiteSpace=wrap;html=1;fontFamily=Times New Roman;fontSize=16;" parent="1" vertex="1">
          <mxGeometry x="1133" y="837.5" width="191" height="63" as="geometry" />
        </mxCell>
        <mxCell id="QM5JJQ9it6W4OubuqGH_-184" value="&lt;font style=&quot;font-size: 16px;&quot;&gt;&lt;span style=&quot;font-size: 16px;&quot;&gt;Удалить вакансию&lt;/span&gt;&lt;/font&gt;" style="text;html=1;strokeColor=none;fillColor=none;align=center;verticalAlign=middle;whiteSpace=wrap;rounded=0;fontFamily=Times New Roman;fontSize=16;" parent="1" vertex="1">
          <mxGeometry x="1156.5" y="850.5" width="144" height="40" as="geometry" />
        </mxCell>
        <mxCell id="QM5JJQ9it6W4OubuqGH_-185" value="&lt;font style=&quot;font-size: 16px;&quot;&gt;&amp;lt;&amp;lt;расширить&amp;gt;&amp;gt;&lt;/font&gt;" style="endArrow=none;endSize=11;endFill=0;html=1;rounded=0;dashed=1;dashPattern=8 8;jumpSize=5;startSize=11;startArrow=classicThin;startFill=1;fontFamily=Times New Roman;fontSize=16;" parent="1" source="QM5JJQ9it6W4OubuqGH_-177" target="QM5JJQ9it6W4OubuqGH_-183" edge="1">
          <mxGeometry width="160" relative="1" as="geometry">
            <mxPoint x="1300" y="759.5" as="sourcePoint" />
            <mxPoint x="1003.5" y="723.59" as="targetPoint" />
          </mxGeometry>
        </mxCell>
        <mxCell id="QM5JJQ9it6W4OubuqGH_-186" value="" style="ellipse;whiteSpace=wrap;html=1;fontFamily=Times New Roman;fontSize=16;" parent="1" vertex="1">
          <mxGeometry x="1327" y="837.5" width="191" height="63" as="geometry" />
        </mxCell>
        <mxCell id="QM5JJQ9it6W4OubuqGH_-187" value="&lt;font style=&quot;font-size: 16px;&quot;&gt;&lt;span style=&quot;font-size: 16px;&quot;&gt;Добавить филиал компании&lt;/span&gt;&lt;/font&gt;" style="text;html=1;strokeColor=none;fillColor=none;align=center;verticalAlign=middle;whiteSpace=wrap;rounded=0;fontFamily=Times New Roman;fontSize=16;" parent="1" vertex="1">
          <mxGeometry x="1350.5" y="850.5" width="144" height="40" as="geometry" />
        </mxCell>
        <mxCell id="QM5JJQ9it6W4OubuqGH_-188" value="" style="ellipse;whiteSpace=wrap;html=1;fontFamily=Times New Roman;fontSize=16;" parent="1" vertex="1">
          <mxGeometry x="1394" y="772" width="191" height="63" as="geometry" />
        </mxCell>
        <mxCell id="QM5JJQ9it6W4OubuqGH_-189" value="&lt;font style=&quot;font-size: 16px;&quot;&gt;&lt;span style=&quot;font-size: 16px;&quot;&gt;Удалить филиал компании&lt;/span&gt;&lt;/font&gt;" style="text;html=1;strokeColor=none;fillColor=none;align=center;verticalAlign=middle;whiteSpace=wrap;rounded=0;fontFamily=Times New Roman;fontSize=16;" parent="1" vertex="1">
          <mxGeometry x="1417.5" y="785" width="144" height="40" as="geometry" />
        </mxCell>
        <mxCell id="QM5JJQ9it6W4OubuqGH_-190" value="&lt;font style=&quot;font-size: 16px;&quot;&gt;&amp;lt;&amp;lt;расширить&amp;gt;&amp;gt;&lt;/font&gt;" style="endArrow=none;endSize=11;endFill=0;html=1;rounded=0;dashed=1;dashPattern=8 8;jumpSize=5;startSize=11;startArrow=classicThin;startFill=1;fontFamily=Times New Roman;fontSize=16;" parent="1" source="QM5JJQ9it6W4OubuqGH_-177" target="QM5JJQ9it6W4OubuqGH_-186" edge="1">
          <mxGeometry width="160" relative="1" as="geometry">
            <mxPoint x="1326" y="739.5" as="sourcePoint" />
            <mxPoint x="1199" y="841.5" as="targetPoint" />
          </mxGeometry>
        </mxCell>
        <mxCell id="QM5JJQ9it6W4OubuqGH_-191" value="&lt;font style=&quot;font-size: 16px;&quot;&gt;&amp;lt;&amp;lt;расширить&amp;gt;&amp;gt;&lt;/font&gt;" style="endArrow=none;endSize=11;endFill=0;html=1;rounded=0;dashed=1;dashPattern=8 8;jumpSize=5;startSize=11;startArrow=classicThin;startFill=1;fontFamily=Times New Roman;fontSize=16;" parent="1" source="QM5JJQ9it6W4OubuqGH_-177" target="QM5JJQ9it6W4OubuqGH_-188" edge="1">
          <mxGeometry width="160" relative="1" as="geometry">
            <mxPoint x="1310.5" y="743.5" as="sourcePoint" />
            <mxPoint x="1183.5" y="845.5" as="targetPoint" />
          </mxGeometry>
        </mxCell>
        <mxCell id="Al3kW1FBFrWsMOtL3rjW-8" value="Пользователь" style="shape=umlActor;verticalLabelPosition=bottom;verticalAlign=top;html=1;outlineConnect=0;fontFamily=Times New Roman;fontSize=16;" parent="1" vertex="1">
          <mxGeometry x="266" y="341.5" width="30" height="60.5" as="geometry" />
        </mxCell>
        <mxCell id="QM5JJQ9it6W4OubuqGH_-23" value="" style="endArrow=none;html=1;rounded=0;exitX=1;exitY=0.3333333333333333;exitDx=0;exitDy=0;exitPerimeter=0;endFill=0;endSize=11;fontFamily=Times New Roman;fontSize=16;" parent="1" source="Al3kW1FBFrWsMOtL3rjW-8" target="QM5JJQ9it6W4OubuqGH_-21" edge="1">
          <mxGeometry width="50" height="50" relative="1" as="geometry">
            <mxPoint x="-22" y="303.5" as="sourcePoint" />
            <mxPoint x="126" y="614.5" as="targetPoint" />
          </mxGeometry>
        </mxCell>
        <mxCell id="QM5JJQ9it6W4OubuqGH_-39" value="" style="endArrow=none;html=1;rounded=0;exitX=1;exitY=0.3333333333333333;exitDx=0;exitDy=0;exitPerimeter=0;endFill=0;endSize=11;fontFamily=Times New Roman;fontSize=16;" parent="1" source="Al3kW1FBFrWsMOtL3rjW-8" target="QM5JJQ9it6W4OubuqGH_-35" edge="1">
          <mxGeometry width="50" height="50" relative="1" as="geometry">
            <mxPoint x="-22" y="299.5" as="sourcePoint" />
            <mxPoint x="126" y="697.5" as="targetPoint" />
          </mxGeometry>
        </mxCell>
        <mxCell id="QM5JJQ9it6W4OubuqGH_-49" value="" style="endArrow=none;html=1;rounded=0;exitX=1;exitY=0.3333333333333333;exitDx=0;exitDy=0;exitPerimeter=0;endFill=0;endSize=11;fontFamily=Times New Roman;fontSize=16;" parent="1" source="Al3kW1FBFrWsMOtL3rjW-8" target="QM5JJQ9it6W4OubuqGH_-47" edge="1">
          <mxGeometry width="50" height="50" relative="1" as="geometry">
            <mxPoint x="276" y="366.5" as="sourcePoint" />
            <mxPoint x="160" y="773.5" as="targetPoint" />
          </mxGeometry>
        </mxCell>
        <mxCell id="QM5JJQ9it6W4OubuqGH_-52" value="" style="endArrow=none;html=1;rounded=0;exitX=1;exitY=0.3333333333333333;exitDx=0;exitDy=0;exitPerimeter=0;endFill=0;endSize=11;fontFamily=Times New Roman;fontSize=16;" parent="1" source="Al3kW1FBFrWsMOtL3rjW-8" target="QM5JJQ9it6W4OubuqGH_-50" edge="1">
          <mxGeometry width="50" height="50" relative="1" as="geometry">
            <mxPoint x="-78" y="366.5" as="sourcePoint" />
            <mxPoint x="70" y="847.5" as="targetPoint" />
          </mxGeometry>
        </mxCell>
        <mxCell id="QM5JJQ9it6W4OubuqGH_-56" value="" style="endArrow=none;html=1;rounded=0;exitX=1;exitY=0.3333333333333333;exitDx=0;exitDy=0;exitPerimeter=0;endFill=0;endSize=11;fontFamily=Times New Roman;fontSize=16;" parent="1" source="Al3kW1FBFrWsMOtL3rjW-8" target="QM5JJQ9it6W4OubuqGH_-54" edge="1">
          <mxGeometry width="50" height="50" relative="1" as="geometry">
            <mxPoint x="-73" y="474.5" as="sourcePoint" />
            <mxPoint x="75" y="955.5" as="targetPoint" />
          </mxGeometry>
        </mxCell>
        <mxCell id="Al3kW1FBFrWsMOtL3rjW-2" value="Кадровик" style="shape=umlActor;verticalLabelPosition=bottom;verticalAlign=top;html=1;outlineConnect=0;fontFamily=Times New Roman;fontSize=16;" parent="1" vertex="1">
          <mxGeometry x="1615" y="455" width="30" height="60" as="geometry" />
        </mxCell>
        <mxCell id="Al3kW1FBFrWsMOtL3rjW-5" value="Администратор" style="shape=umlActor;verticalLabelPosition=bottom;verticalAlign=top;html=1;outlineConnect=0;fontFamily=Times New Roman;fontSize=16;" parent="1" vertex="1">
          <mxGeometry x="1625" y="563.5" width="30" height="60" as="geometry" />
        </mxCell>
        <mxCell id="QM5JJQ9it6W4OubuqGH_-115" value="" style="endArrow=none;html=1;rounded=0;exitX=0;exitY=0.3333333333333333;exitDx=0;exitDy=0;exitPerimeter=0;endFill=0;endSize=11;fontFamily=Times New Roman;fontSize=16;" parent="1" source="Al3kW1FBFrWsMOtL3rjW-2" target="QM5JJQ9it6W4OubuqGH_-109" edge="1">
          <mxGeometry width="50" height="50" relative="1" as="geometry">
            <mxPoint x="1788" y="502.5" as="sourcePoint" />
            <mxPoint x="889" y="516.5" as="targetPoint" />
          </mxGeometry>
        </mxCell>
        <mxCell id="QM5JJQ9it6W4OubuqGH_-116" value="" style="endArrow=none;html=1;rounded=0;exitX=0;exitY=0.3333333333333333;exitDx=0;exitDy=0;exitPerimeter=0;endFill=0;endSize=11;fontFamily=Times New Roman;fontSize=16;" parent="1" source="Al3kW1FBFrWsMOtL3rjW-2" target="QM5JJQ9it6W4OubuqGH_-107" edge="1">
          <mxGeometry width="50" height="50" relative="1" as="geometry">
            <mxPoint x="1788" y="502.5" as="sourcePoint" />
            <mxPoint x="1551" y="462.5" as="targetPoint" />
          </mxGeometry>
        </mxCell>
        <mxCell id="QM5JJQ9it6W4OubuqGH_-117" value="" style="endArrow=none;html=1;rounded=0;exitX=0;exitY=0.3333333333333333;exitDx=0;exitDy=0;exitPerimeter=0;endFill=0;endSize=11;fontFamily=Times New Roman;fontSize=16;" parent="1" source="Al3kW1FBFrWsMOtL3rjW-2" target="QM5JJQ9it6W4OubuqGH_-105" edge="1">
          <mxGeometry width="50" height="50" relative="1" as="geometry">
            <mxPoint x="1798" y="512.5" as="sourcePoint" />
            <mxPoint x="1561" y="472.5" as="targetPoint" />
          </mxGeometry>
        </mxCell>
        <mxCell id="QM5JJQ9it6W4OubuqGH_-118" value="" style="endArrow=none;html=1;rounded=0;exitX=0;exitY=0.3333333333333333;exitDx=0;exitDy=0;exitPerimeter=0;endFill=0;endSize=11;fontFamily=Times New Roman;fontSize=16;" parent="1" source="Al3kW1FBFrWsMOtL3rjW-2" target="QM5JJQ9it6W4OubuqGH_-111" edge="1">
          <mxGeometry width="50" height="50" relative="1" as="geometry">
            <mxPoint x="1808" y="522.5" as="sourcePoint" />
            <mxPoint x="1571" y="482.5" as="targetPoint" />
          </mxGeometry>
        </mxCell>
        <mxCell id="QM5JJQ9it6W4OubuqGH_-165" value="" style="endArrow=none;html=1;rounded=0;exitX=0;exitY=0.3333333333333333;exitDx=0;exitDy=0;exitPerimeter=0;endFill=0;endSize=11;fontFamily=Times New Roman;fontSize=16;" parent="1" source="Al3kW1FBFrWsMOtL3rjW-2" target="QM5JJQ9it6W4OubuqGH_-163" edge="1">
          <mxGeometry width="50" height="50" relative="1" as="geometry">
            <mxPoint x="1788" y="502.5" as="sourcePoint" />
            <mxPoint x="1533" y="388.5" as="targetPoint" />
          </mxGeometry>
        </mxCell>
        <mxCell id="QM5JJQ9it6W4OubuqGH_-166" value="" style="endArrow=none;html=1;rounded=0;exitX=0;exitY=0.3333333333333333;exitDx=0;exitDy=0;exitPerimeter=0;endFill=0;endSize=11;fontFamily=Times New Roman;fontSize=16;" parent="1" source="Al3kW1FBFrWsMOtL3rjW-5" target="QM5JJQ9it6W4OubuqGH_-111" edge="1">
          <mxGeometry width="50" height="50" relative="1" as="geometry">
            <mxPoint x="1796" y="465.5" as="sourcePoint" />
            <mxPoint x="1575" y="296.5" as="targetPoint" />
          </mxGeometry>
        </mxCell>
        <mxCell id="QM5JJQ9it6W4OubuqGH_-167" value="" style="endArrow=none;html=1;rounded=0;exitX=0;exitY=0.3333333333333333;exitDx=0;exitDy=0;exitPerimeter=0;endFill=0;endSize=11;fontFamily=Times New Roman;fontSize=16;" parent="1" source="Al3kW1FBFrWsMOtL3rjW-5" target="QM5JJQ9it6W4OubuqGH_-105" edge="1">
          <mxGeometry width="50" height="50" relative="1" as="geometry">
            <mxPoint x="1806" y="475.5" as="sourcePoint" />
            <mxPoint x="1585" y="306.5" as="targetPoint" />
          </mxGeometry>
        </mxCell>
        <mxCell id="QM5JJQ9it6W4OubuqGH_-168" value="" style="endArrow=none;html=1;rounded=0;exitX=0;exitY=0.3333333333333333;exitDx=0;exitDy=0;exitPerimeter=0;endFill=0;endSize=11;fontFamily=Times New Roman;fontSize=16;" parent="1" source="Al3kW1FBFrWsMOtL3rjW-5" target="QM5JJQ9it6W4OubuqGH_-163" edge="1">
          <mxGeometry width="50" height="50" relative="1" as="geometry">
            <mxPoint x="1816" y="485.5" as="sourcePoint" />
            <mxPoint x="1595" y="316.5" as="targetPoint" />
          </mxGeometry>
        </mxCell>
        <mxCell id="QM5JJQ9it6W4OubuqGH_-169" value="" style="endArrow=none;html=1;rounded=0;exitX=0;exitY=0.3333333333333333;exitDx=0;exitDy=0;exitPerimeter=0;endFill=0;endSize=11;fontFamily=Times New Roman;fontSize=16;" parent="1" source="Al3kW1FBFrWsMOtL3rjW-5" target="QM5JJQ9it6W4OubuqGH_-21" edge="1">
          <mxGeometry width="50" height="50" relative="1" as="geometry">
            <mxPoint x="1826" y="495.5" as="sourcePoint" />
            <mxPoint x="1605" y="326.5" as="targetPoint" />
          </mxGeometry>
        </mxCell>
        <mxCell id="QM5JJQ9it6W4OubuqGH_-171" value="" style="endArrow=none;html=1;rounded=0;exitX=0;exitY=0.3333333333333333;exitDx=0;exitDy=0;exitPerimeter=0;endFill=0;endSize=11;fontFamily=Times New Roman;fontSize=16;" parent="1" source="Al3kW1FBFrWsMOtL3rjW-5" target="QM5JJQ9it6W4OubuqGH_-109" edge="1">
          <mxGeometry width="50" height="50" relative="1" as="geometry">
            <mxPoint x="1806" y="601.5" as="sourcePoint" />
            <mxPoint x="897" y="533.5" as="targetPoint" />
          </mxGeometry>
        </mxCell>
        <mxCell id="QM5JJQ9it6W4OubuqGH_-172" value="" style="endArrow=none;html=1;rounded=0;exitX=0;exitY=0.3333333333333333;exitDx=0;exitDy=0;exitPerimeter=0;endFill=0;endSize=11;fontFamily=Times New Roman;fontSize=16;" parent="1" source="Al3kW1FBFrWsMOtL3rjW-5" target="QM5JJQ9it6W4OubuqGH_-107" edge="1">
          <mxGeometry width="50" height="50" relative="1" as="geometry">
            <mxPoint x="1816" y="611.5" as="sourcePoint" />
            <mxPoint x="907" y="543.5" as="targetPoint" />
          </mxGeometry>
        </mxCell>
        <mxCell id="QM5JJQ9it6W4OubuqGH_-176" value="" style="endArrow=none;html=1;rounded=0;exitX=0;exitY=0.3333333333333333;exitDx=0;exitDy=0;exitPerimeter=0;endFill=0;endSize=11;fontFamily=Times New Roman;fontSize=16;" parent="1" source="Al3kW1FBFrWsMOtL3rjW-5" target="QM5JJQ9it6W4OubuqGH_-174" edge="1">
          <mxGeometry width="50" height="50" relative="1" as="geometry">
            <mxPoint x="1796" y="465.5" as="sourcePoint" />
            <mxPoint x="888" y="512.5" as="targetPoint" />
          </mxGeometry>
        </mxCell>
        <mxCell id="QM5JJQ9it6W4OubuqGH_-179" value="" style="endArrow=none;html=1;rounded=0;exitX=0;exitY=0.3333333333333333;exitDx=0;exitDy=0;exitPerimeter=0;endFill=0;endSize=11;fontFamily=Times New Roman;fontSize=16;" parent="1" source="Al3kW1FBFrWsMOtL3rjW-5" target="QM5JJQ9it6W4OubuqGH_-177" edge="1">
          <mxGeometry width="50" height="50" relative="1" as="geometry">
            <mxPoint x="1796" y="591.5" as="sourcePoint" />
            <mxPoint x="997" y="721.5" as="targetPoint" />
          </mxGeometry>
        </mxCell>
        <mxCell id="SF_6A3OBlmHwGj7pTA_R-4" value="" style="endArrow=none;html=1;rounded=0;exitX=0;exitY=0.3333333333333333;exitDx=0;exitDy=0;exitPerimeter=0;endFill=0;endSize=11;fontFamily=Times New Roman;fontSize=16;" parent="1" source="Al3kW1FBFrWsMOtL3rjW-5" target="QM5JJQ9it6W4OubuqGH_-157" edge="1">
          <mxGeometry width="50" height="50" relative="1" as="geometry">
            <mxPoint x="1689" y="581.5" as="sourcePoint" />
            <mxPoint x="965" y="733.5" as="targetPoint" />
          </mxGeometry>
        </mxCell>
        <mxCell id="QM5JJQ9it6W4OubuqGH_-51" value="&lt;font style=&quot;font-size: 16px;&quot;&gt;Просмотр мероприятий&lt;/font&gt;" style="text;html=1;strokeColor=none;fillColor=none;align=center;verticalAlign=middle;whiteSpace=wrap;rounded=0;fontFamily=Times New Roman;fontSize=16;" parent="1" vertex="1">
          <mxGeometry x="385.75" y="117" width="144" height="40" as="geometry" />
        </mxCell>
        <mxCell id="79OnpWWx03jOih9NopMH-4" value="" style="endArrow=none;html=1;rounded=0;exitX=0;exitY=0.3333333333333333;exitDx=0;exitDy=0;exitPerimeter=0;endFill=0;endSize=11;fontFamily=Times New Roman;fontSize=16;" parent="1" source="Al3kW1FBFrWsMOtL3rjW-2" target="QM5JJQ9it6W4OubuqGH_-157" edge="1">
          <mxGeometry width="50" height="50" relative="1" as="geometry">
            <mxPoint x="1636" y="445" as="sourcePoint" />
            <mxPoint x="946" y="726" as="targetPoint" />
          </mxGeometry>
        </mxCell>
        <mxCell id="79OnpWWx03jOih9NopMH-5" value="" style="endArrow=none;html=1;rounded=0;endFill=0;endSize=11;exitX=0;exitY=0.3333333333333333;exitDx=0;exitDy=0;exitPerimeter=0;fontFamily=Times New Roman;fontSize=16;" parent="1" source="Al3kW1FBFrWsMOtL3rjW-2" target="QM5JJQ9it6W4OubuqGH_-21" edge="1">
          <mxGeometry width="50" height="50" relative="1" as="geometry">
            <mxPoint x="1569" y="483" as="sourcePoint" />
            <mxPoint x="852" y="589" as="targetPoint" />
          </mxGeometry>
        </mxCell>
      </root>
    </mxGraphModel>
  </diagram>
</mxfile>
